<svg width="11" height="17" viewBox="0 0 11 17" fill="none" xmlns="http://www.w3.org/2000/svg">
<g clip-path="url(#clip0_6_345)">
<path d="M7.86543 5.04688C7.2759 5.04688 6.79799 4.57118 6.79799 3.98438C6.79799 3.39757 7.2759 2.92188 7.86543 2.92188C8.45495 2.92188 8.93286 3.39757 8.93286 3.98438C8.93286 4.57118 8.45495 5.04688 7.86543 5.04688Z" fill="black"/>
<path d="M3.32905 5.04688C2.73952 5.04688 2.26162 4.57118 2.26162 3.98438C2.26162 3.39757 2.73952 2.92188 3.32905 2.92188C3.91858 2.92188 4.39648 3.39757 4.39648 3.98438C4.39648 4.57118 3.91858 5.04688 3.32905 5.04688Z" fill="black"/>
<path d="M7.86543 9.5625C7.2759 9.5625 6.79799 9.0868 6.79799 8.5C6.79799 7.9132 7.2759 7.4375 7.86543 7.4375C8.45495 7.4375 8.93286 7.9132 8.93286 8.5C8.93286 9.0868 8.45495 9.5625 7.86543 9.5625Z" fill="black"/>
<path d="M3.32905 9.5625C2.73952 9.5625 2.26162 9.0868 2.26162 8.5C2.26162 7.9132 2.73952 7.4375 3.32905 7.4375C3.91858 7.4375 4.39648 7.9132 4.39648 8.5C4.39648 9.0868 3.91858 9.5625 3.32905 9.5625Z" fill="black"/>
<path d="M7.86543 14.0781C7.2759 14.0781 6.79799 13.6024 6.79799 13.0156C6.79799 12.4288 7.2759 11.9531 7.86543 11.9531C8.45495 11.9531 8.93286 12.4288 8.93286 13.0156C8.93286 13.6024 8.45495 14.0781 7.86543 14.0781Z" fill="black"/>
<path d="M3.32905 14.0781C2.73952 14.0781 2.26162 13.6024 2.26162 13.0156C2.26162 12.4288 2.73952 11.9531 3.32905 11.9531C3.91858 11.9531 4.39648 12.4288 4.39648 13.0156C4.39648 13.6024 3.91858 14.0781 3.32905 14.0781Z" fill="black"/>
</g>
<defs>
<clipPath id="clip0_6_345">
<rect width="11" height="17" fill="white" transform="matrix(-1 0 0 1 11 0)"/>
</clipPath>
</defs>
</svg>
