<svg width="100" height="67" viewBox="0 0 100 67" fill="none" xmlns="http://www.w3.org/2000/svg">
	<path
		d="M81.9449 15.6609L72.1656 9.60986L62.3791 15.6609L52.5797 9.60986L42.8116 15.6609L42.8076 20.505L52.5797 14.4523L62.3743 20.505L72.1656 14.4523L81.9409 20.505L81.9449 15.6609Z"
		fill="#0089C4" />
	<path
		d="M62.3774 6.05105L52.5981 0L42.8107 6.05105L33.0122 0L23.2441 6.05105L23.2393 10.8951L33.0122 4.84244L42.8067 10.8951L52.5981 4.84244L62.3734 10.8951L62.3774 6.05105Z"
		fill="#3F9C35" />
	<path
		d="M6.93262 54.4653H8.72728L13.1207 64.8321L17.4983 54.4653H19.3252L14.0757 66.3468H12.1338L6.93262 54.4653Z"
		fill="#284E36" />
	<path d="M21.1895 54.4805H22.868V66.362H21.1895V54.4805Z" fill="#284E36" />
	<path
		d="M31.4309 66.6748C27.3826 66.6748 24.9307 64.2065 24.9307 60.4209C24.9307 56.6353 27.3826 54.167 31.4473 54.167C34.7711 54.167 37.0756 56.044 37.3223 58.7923H35.5779C35.2486 56.8995 33.7023 55.7476 31.4308 55.7476C28.4198 55.7476 26.6745 57.508 26.6745 60.4209C26.6745 63.3338 28.4363 65.0942 31.4472 65.0942C33.7844 65.0942 35.4297 63.7619 35.7096 61.7711H37.4545C37.1407 64.7319 34.8041 66.6748 31.4309 66.6748Z"
		fill="#284E36" />
	<path d="M43.7069 66.362H42.0281V56.0268H37.5195V54.4805H48.2327V56.0268H43.7069V66.362Z"
		fill="#284E36" />
	<path
		d="M54.8955 54.167C58.9432 54.167 61.3948 56.636 61.3948 60.4209C61.3948 64.2057 58.9429 66.6748 54.8788 66.6748C50.8298 66.6748 48.3779 64.2065 48.3779 60.4209C48.3779 56.6353 50.8301 54.167 54.8955 54.167ZM54.8955 65.0942C57.9223 65.0942 59.6511 63.3173 59.6511 60.4209C59.6511 57.508 57.9062 55.7476 54.8791 55.7476C51.8674 55.7476 50.1221 57.508 50.1221 60.4209C50.1221 63.3338 51.8674 65.0942 54.8955 65.0942Z"
		fill="#284E36" />
	<path
		d="M63.3057 54.4805H69.5596C72.3244 54.4805 73.7719 55.6158 73.7719 57.7221C73.8351 58.3712 73.6642 59.0215 73.2901 59.5557C72.916 60.0898 72.3632 60.4727 71.7316 60.6351C72.9665 60.8161 73.4605 61.4915 73.5592 62.8894L73.7074 64.8151C73.6998 65.3609 73.8478 65.8975 74.1342 66.3621H72.1761C72.0399 65.9644 71.9677 65.5476 71.9622 65.1272L71.814 63.3669C71.6822 61.7712 71.1883 61.2607 69.4279 61.2607H64.9689V66.3621H63.3057V54.4805ZM64.9689 55.9115V59.7951H68.9012C71.0733 59.7951 72.0941 59.3836 72.0941 57.8537C72.0941 56.2408 71.0417 55.9115 68.753 55.9115H64.9689Z"
		fill="#284E36" />
	<path d="M76.7412 54.4805H78.4193V66.362H76.7412V54.4805Z" fill="#284E36" />
	<path
		d="M86.0242 54.4805H87.7845L93.0672 66.362H91.3223L89.8089 62.9715H83.7361L82.1568 66.362H80.3799L86.0242 54.4805ZM89.1182 61.4252L86.846 56.3564L84.4435 61.4256L89.1182 61.4252Z"
		fill="#284E36" />
	<path
		d="M0 17.8652H12.849C20.071 17.8652 23.6012 20.5836 23.6012 26.5074C23.6012 32.4313 20.0714 35.1497 12.849 35.1497H4.67684V49.2942H0V17.8652ZM11.1856 31.7008C16.8251 31.7008 19.4626 30.6863 19.4626 26.6287C19.4626 22.5306 16.9064 21.5164 11.4698 21.5164H4.67684V31.7008H11.1856Z"
		fill="#284E36" />
	<path
		d="M25.1556 29.8003C25.4585 28.5784 25.5837 27.3193 25.5274 26.0616C26.3624 25.9983 27.2 25.9785 28.0371 26.0026C35.259 26.0026 37.9781 27.9096 37.9781 33.2249V41.9886C37.9781 44.2609 38.3841 45.1938 39.9259 45.1938C40.3073 45.1872 40.6873 45.1466 41.0615 45.0723V48.2371C40.0525 48.369 39.0362 48.4369 38.0187 48.4404C35.7467 48.4404 34.5697 47.4255 34.1644 45.0723C32.2165 47.5884 29.0519 48.9677 25.0348 48.9677C19.5978 48.9677 16.6363 46.4926 16.6363 42.4353C16.6217 41.3538 16.9056 40.2893 17.4568 39.3587C18.0079 38.4282 18.805 37.6676 19.7603 37.1606C21.0587 36.3897 23.4119 36.0648 26.739 35.7001C31.5676 35.1729 33.9613 35.294 33.9613 32.6971C33.9613 30.344 32.2572 29.411 28.3217 29.411C27.2525 29.3746 26.1841 29.506 25.1556 29.8003ZM27.4697 38.7833C23.2499 39.2699 20.937 39.6354 20.937 42.2731C20.937 44.342 22.6411 45.6408 25.6843 45.6408C30.7155 45.6408 34.0426 43.247 34.0426 40.5284V37.2822C32.9058 37.9719 30.7557 38.4186 27.4697 38.7833Z"
		fill="#284E36" />
	<path
		d="M42.8086 26.7331H46.7038V30.3846C47.5607 29.0414 48.7422 27.9358 50.1392 27.1699C51.5363 26.4041 53.1039 26.0026 54.6971 26.0027C55.3006 25.9698 55.9022 26.0957 56.442 26.3677V30.5063C55.5356 30.2212 54.5922 30.0708 53.6421 30.06C49.9093 30.06 46.7446 33.1844 46.7446 37.8095V48.4405H42.8086V26.7331Z"
		fill="#284E36" />
	<path
		d="M58.1504 26.1011H62.0859V36.227L73.487 26.7329H79.3299L69.0244 35.0102L80.1006 48.4403H75.1166L66.1026 37.4036L62.0859 40.6092V48.4403H58.1504V26.1011Z"
		fill="#284E36" />
	<path
		d="M82.7968 41.38C83.1623 44.1389 85.3936 45.7217 89.1667 45.7217C93.5895 45.7217 95.9427 44.4228 95.9427 42.4351C95.9427 40.7716 94.7261 40.2034 92.0072 39.7571L87.1384 38.905C82.0666 38.0529 79.5106 36.917 79.5106 32.9405C79.5106 28.4369 82.8377 26.0024 89.2888 26.0024C95.7813 26.0024 99.1888 28.5586 99.1888 33.103V33.2654H95.3752C95.0909 30.5467 93.022 29.3295 89.0865 29.3295C85.3939 29.3295 83.4867 30.3844 83.4867 32.2509C83.4867 34.3206 85.069 34.726 88.3555 35.2938L93.0626 36.0646C97.8907 36.8761 100 38.2967 100 42.1916C100 46.614 96.2678 49.2105 89.167 49.2105C82.4323 49.2105 78.9834 46.6953 78.4961 41.3801L82.7968 41.38Z"
		fill="#284E36" />
</svg>
	